<svg width="36" height="36" viewBox="0 0 36 36" fill="none" xmlns="http://www.w3.org/2000/svg">
<rect width="36" height="36" fill="#0077AE"/>
<path d="M17.2969 9.5625H18.7031C18.8281 9.5625 18.8906 9.625 18.8906 9.75V26.25C18.8906 26.375 18.8281 26.4375 18.7031 26.4375H17.2969C17.1719 26.4375 17.1094 26.375 17.1094 26.25V9.75C17.1094 9.625 17.1719 9.5625 17.2969 9.5625Z" fill="white"/>
<path d="M10.125 17.1094H25.875C26 17.1094 26.0625 17.1719 26.0625 17.2969V18.7031C26.0625 18.8281 26 18.8906 25.875 18.8906H10.125C10 18.8906 9.9375 18.8281 9.9375 18.7031V17.2969C9.9375 17.1719 10 17.1094 10.125 17.1094Z" fill="white"/>
</svg>
